/* XPM */
static char *logo_yellow[] = {
/* columns rows colors chars-per-pixel */
"161 40 203 2 ",
"   c black",
".  c #010100",
"X  c #020100",
"o  c #030200",
"O  c #040200",
"+  c #050300",
"@  c #060400",
"#  c #070400",
"$  c #080500",
"%  c #090500",
"&  c #0A0600",
"*  c #0B0700",
"=  c #0C0700",
"-  c #0D0800",
";  c #0E0800",
":  c #0F0900",
">  c #100A00",
",  c #110A00",
"<  c #130B00",
"1  c #140C00",
"2  c #150D00",
"3  c #160D00",
"4  c #170E00",
"5  c #180E00",
"6  c #190F00",
"7  c #1A1000",
"8  c #1B1000",
"9  c #1D1100",
"0  c #1E1200",
"q  c #1F1300",
"w  c #221400",
"e  c #231500",
"r  c #241600",
"t  c #251600",
"y  c #261700",
"u  c #271700",
"i  c #281800",
"p  c #291900",
"a  c #2A1900",
"s  c #2C1A00",
"d  c #2D1B00",
"f  c #2E1C00",
"g  c #2F1C00",
"h  c #321E00",
"j  c #331F00",
"k  c #352000",
"l  c #372100",
"z  c #382200",
"x  c #392200",
"c  c #3A2300",
"v  c #3B2300",
"b  c #3C2400",
"n  c #3D2500",
"m  c #3E2500",
"M  c #3F2600",
"N  c #402600",
"B  c #412700",
"V  c #422800",
"C  c #432800",
"Z  c #442900",
"A  c #452900",
"S  c #472B00",
"D  c #482B00",
"F  c #492C00",
"G  c #4B2D00",
"H  c #4D2E00",
"J  c #4E2F00",
"K  c #4F2F00",
"L  c #503000",
"P  c #513100",
"I  c #533200",
"U  c #543200",
"Y  c #553300",
"T  c #563400",
"R  c #573400",
"E  c #593500",
"W  c #5A3600",
"Q  c #5B3700",
"!  c #5D3800",
"~  c #5E3800",
"^  c #5F3900",
"/  c #603A00",
"(  c #613A00",
")  c #623B00",
"_  c #633B00",
"`  c #643C00",
"'  c #653D00",
"]  c #673E00",
"[  c #683E00",
"{  c #693F00",
"}  c #6B4000",
"|  c #6C4100",
" . c #6D4100",
".. c #6E4200",
"X. c #6F4300",
"o. c #714400",
"O. c #724400",
"+. c #744600",
"@. c #754600",
"#. c #764700",
"$. c #774700",
"%. c #784800",
"&. c #794900",
"*. c #7B4A00",
"=. c #7E4C00",
"-. c #7F4C00",
";. c #804D00",
":. c #814D00",
">. c #824E00",
",. c #834F00",
"<. c #855000",
"1. c #865000",
"2. c #875100",
"3. c #885200",
"4. c #895200",
"5. c #8A5300",
"6. c #8B5300",
"7. c #8D5500",
"8. c #8E5500",
"9. c #8F5600",
"0. c #905600",
"q. c #935800",
"w. c #945900",
"e. c #955900",
"r. c #975B00",
"t. c #985B00",
"y. c #995C00",
"u. c #9A5C00",
"i. c #9B5D00",
"p. c #9E5F00",
"a. c #9F5F00",
"s. c #A06000",
"d. c #A16100",
"f. c #A36200",
"g. c #A56300",
"h. c #A66400",
"j. c #A86500",
"k. c #A96500",
"l. c #AA6600",
"z. c #AC6700",
"x. c #AF6900",
"c. c #B16A00",
"v. c #B26B00",
"b. c #B36B00",
"n. c #B46C00",
"m. c #B56D00",
"M. c #B76E00",
"N. c #B86E00",
"B. c #B96F00",
"V. c #BA7000",
"C. c #BC7100",
"Z. c #BD7100",
"A. c #BE7200",
"S. c #BF7300",
"D. c #C17400",
"F. c #C27400",
"G. c #C37500",
"H. c #C47600",
"J. c #C57600",
"K. c #C67700",
"L. c #C87800",
"P. c #CA7900",
"I. c #CB7A00",
"U. c #CC7A00",
"Y. c #CE7C00",
"T. c #CF7C00",
"R. c #D07D00",
"E. c #D17D00",
"W. c #D27E00",
"Q. c #D47F00",
"!. c #D58000",
"~. c #D68000",
"^. c #D78100",
"/. c #D98200",
"(. c #DA8300",
"). c #DD8500",
"_. c #DE8500",
"`. c #DF8600",
"'. c #E18700",
"]. c #E28800",
"[. c #E38800",
"{. c #E58900",
"}. c #E68A00",
"|. c #E78B00",
" X c #E98C00",
".X c #EB8D00",
"XX c #ED8E00",
"oX c #EE8F00",
"OX c #EF8F00",
"+X c #F09000",
"@X c #F19100",
"#X c #F29100",
"$X c #F49200",
"%X c #F69400",
"&X c #F79400",
"*X c #F89500",
"=X c #F99500",
"-X c #FA9600",
";X c #FB9700",
":X c #FC9700",
">X c #FD9800",
",X c #FE9800",
"<X c #FF9900",
/* pixels */
"                                                                                                                                    + r S [ ;.w.z.F.^.'.5               . 9 B ' U u o                                                                                                                                       8 v 5 ",
"                                                                                                                        < C O.u.C._.:X<X<X<X<X<X<X<X<X-.                      . x i. XU.p.&.Q b 0 O                                                                                                           < d L %.s.L.l.~ ;   ",
"                                                                                                              6 I <.n.[.<X<X<X<X<X<X<X<X<X<X<X<X<X<XOX=                             = ) Y.<X<X<X<X:X[.H.h.3.| E D l y 2 O                                                               > q g M P ..4.f.D.(.%X<X<X<XXX6.e         ",
"                                                                                                      7 Y y.!.,X<X<X<X<X<X<X<X<X<X<X<X<X<X<X<X<X<X<X5.                                    Z B.<X<X<X<X<X<X<X<X<X<X<X<X<X<X#X'.R.S.N.l.l.j.y.y.r.3.3.2.$.$.-.3.3.7.y.y.i.l.l.x.S.T._.oX<X<X<X<X<X<X<X<X<X<X<X<X<X'.} %             ",
"                                                                                              : Y a.}.<X<X<X<X<X<X<X<X<X<X<X<X<X<X<X<X<X<X<X<X<X<X>Xq                                         j B.<X<X<X<X<X<X<X<X<X<X<X<X<X<X<X<X<X<X<X<X<X<X<X<X<X<X<X<X<X<X<X<X<X<X<X<X<X<X<X<X<X<X<X<X<X<X<X<X<X<X<X<X<X_._ @                 ",
"                                                                                        p @.S.;X<X<X<X<X<X<X<X<X<X<X<X<X<X<X<X<X<X<X<X<X<X<X<X<X<XZ.                                              C P.<X<X<X<X<X<X<X<X<X<X<X<X<X<X<X<X<X<X<X<X<X<X<X<X<X<X<X<X<X<X<X<X<X<X<X<X<X<X<X<X<X<X<X<X<X<X<X<X<XOX+.#                     ",
"                                                                                  9 X.U.<X<X<X<X<X<X<X<X<X<X<X<X<X<X<X<X<X<X<X<X<X<X<X<X<X<X<X<X<X)                                                 . ' XX<X<X<X<X<X<X<X<X<X<X<X<X<X<X<X<X<X<X<X<X<X<X<X<X<X<X<X<X<X<X<X<X<X<X<X<X<X<X<X<X<X<X<X<X<X>Xt.1                         ",
"                                                                            2 } H.,X<X<X<X<X<X<X<X<X<X<X<X<X<X<X<X<X<X<X<X<X<X<X<X<X<X<X<X<X<X<X;X>                                                     2 s.,X<X<X<X<X<X<X<X<X<X<X<X<X<X<X<X<X<X<X<X<X<X<X<X<X<X<X<X<X<X<X<X<X<X<X<X<X<X<X<X<X<X<X^.b                             ",
"                                                                        j y.%X<X<X<X<X<X<X<X<X<X<X<X<X<X<X<X<X<X<X<X<X<X<X<X<X<X<X<X<X<X<X<X<X<XF.                                                          H  X<X<X<X<X<X<X<X<X<X<X<X<X<X<X<X<X<X<X<X<X<X<X<X<X<X<X<X<X<X<X<X<X<X<X<X<X<X<X<X>X1.#                               ",
"                                                                  $ ~ T.<X<X<X<X<X<X<X<X<X<X<X<X<X<X<X<X<X<X<X<X<X<X<X<X<X<X<X<X<X<X<X<X<X<X<X<X&.                                                            4 m.<X<X<X<X<X<X<X<X<X<X<X<X<X<X<X<X<X<X<X<X<X<X<X<X<X<X<X<X<X<X<X<X<X<X<X<X<X}.V                                   ",
"                                                              2 2.+X<X<X<X<X<X<X<X<X<X<X<X<X<X<X<X<X<X<X<X<X<X<X<X<X<X<X<X<X<X<X<X<X<X<X<X<X<X<Xl                                                               . *.>X<X<X<X<X<X<X<X<X<X<X<X<X<X<X<X<X<X<X<X<X<X<X<X<X<X<X<X<X<X<X<X<X<X<XV.3                                     ",
"                                                          3 ;.@X<X<X<X<X<X<X<X<X<X<X<X<X<X<X<X<X<X<X<X<X<X<X<X<X<X<X<X<X<X<X<X<X<X<X<X<X<X<X<X&X@                                                                   F OX<X<X<X<X<X<X<X<X<X<X<X<X<X<X<X<X<X<X<X<X<X<X<X<X<X<X<X<X<X<X<X<Xy.+                                       ",
"                                                      7 q.&X<X<X<X<X<X<X<X<X<X<X<X<X<X<X<X<X<X<X<X<X<X<X<X<X<X<X<X<X<X<X<X<X<X<X<X<X<X<X<X<X<XG.                                                                      p '.<X<X<X<X<X<X<X<X<X<X<X<X<X<X<X<X<X<X<X<X<X<X<X<X<X<X<X<X<X;X{                                           ",
"                                                  & =.$X<X<X<X<X<X<X<X<X<X<X<X<X<X<X<X<X<X<X<X<X<X<X<X<X<X<X<X<X<X<X<X<X<X<X<X<X<X<X<X<X<X<X<X8.                                                                        6 W.<X<X<X<X<X<X<X<X<X<X<X<X<X<X<X<X<X<X<X<X<X<X<X<X<X<X<X=XU                                             ",
"                                              . Y `.<X<X<X<X<X<X<X<X<X<X<X<X<X<X<X<X<X<X<X<X<X<X<X<X<X<X<X<X<X<X<X<X<X<X<X<X<X<X<X<X<X<X<X<X<X_                                                                           1 U.<X<X<X<X<X<X<X<X<X<X<X<X<X<X<X<X<X<X<X<X<X<X<X<X<X%XF                                               ",
"                                            j I.<X<X<X<X<X<X<X<X<X<X<X<X<X<X<X<X<X<X<X<X<X<X<X<X<X<X<X<X<X<X<X<X<X<X<X<X<X<X<X<X<X<X<X<X<X<X<Xx                                                                             < W.<X<X<X<X<X<X<X<X<X<X<X<X<X<X<X<X<X<X<X<X<X<X<X*XZ                                                 ",
"                                        $ 2.;X<X<X<X<X<X<X<X<X<X<X<X<X<X<X<X<X<X<X<X<X<X<X<X<X<X<X<X<X<X<X<X<X<X<X<X<X<X<X<X<X<X<X<X<X<X<X<X<X>                                                                               3 ^.<X<X<X<X<X<X<X<X<X<X<X<X<X<X<X<X<X<X<X<X<X:XY                                                   ",
"                                      z ~.<X<X<X<X<X<X<X<X<X<X<X<X<X<X<X<X<X<X<X<X<X<X<X<X<X<X<X<X<X<X<X<X<X<X<X<X<X<X<X<X<X<X<X<X<X<X<X<X<XoX                                                                                  q  X<X<X<X<X<X<X<X<X<X<X<X<X<X<X<X<X<X<X<X<X_                                                     ",
"                                  O 5.>X<X<X<X<X<X<X<X<X<X<X<X<X<X<X<X<X<X<X<X<X<X<X<X<X<X<X<X<X<X<X<X<X<X<X<X<X<X<X<X<X<X<X<X<X<X<X<X<X<X<XE.                                                                                    c *X<X<X<X<X<X<X<X<X<X<X<X<X<X<X<X<X<X<X6.                                                      ",
"                                8 G.<X<X<X<X<X<X<X<X<X<X<X<X<X<X<X<X<X<X<X<X<X<X<X<X<X<X<X<X<X<X<X<X<X<X<X<X<X<X<X<X<X<X<X<X<X<X<X<X<X<X<X<Xv.                                                                                      ^ <X<X<X<X<X<X<X<X<X<X<X<X<X<X<X<X<XC.O                                                       ",
"                              N |.<X<X<X<X<X<X<X<X<X<X<X<X<X<X<X<X<X<X<X<X<X<X<X<X<X<X<X<X<X<X<X<X<X<X<X<X<X<X<X<X<X<X<X<X<X<X<X<X<X<X<X<X<Xi.                                                                                        p.<X<X<X<X<X<X<X<X<X<X<X<X<X<X<X[.<                                                         ",
"                            *.:X<X<X<X<X<X<X<X<X<X<X<X<X<X<X<X<X<X<X<X<X<X<X<X<X<X<X<X<X<X<X<X<X<X<X<X<X<X<X<X<X<X<X<X<X<X<X<X<X<X<X<X<X<X<X6.                                                                                        * /.<X<X<X<X<X<X<X<X<X<X<X<X<X,XD                                                           ",
"                        o r.<X<X<X<X<X<X<X<X<X<X<X<X<X<X<X<X<X<X<X<X<X<X<X<X<X<X<X<X<X<X<X<X<X<X<X<X<X<X<X<X<X<X<X<X<X<X<X<X<X<X<X<X<X<X<X<X&.                                                                                          l ;X<X<X<X<X<X<X<X<X<X<X<X<X0.                                                            ",
"                      & c.<X<X<X<X<X<X<X<X<X<X<X<X<X<X<X<X<X<X<X<X<X<X<X<X<X<X<X<X<X<X<X<X<X<X<X<X<X<X<X<X<X<X<X<X<X<X<X<X<X<X<X<X<X<X<X<X<X}                                                                                             9.<X<X<X<X<X<X<X<X<X<X<X).%                                                             ",
"                    < K.<X<X<X<X<X<X<X<X<X<X<X<X<X<X<X<X<X<X<X<X<X<X<X<X<X<X<X<X<X<X<X<X<X<X<X<X<X<X<X<X<X<X<X<X<X<X<X<X<X<X<X<X<X<X<X<X<X<X`                                                                                             - {.<X<X<X<X<X<X<X<X<X<XJ                                                               ",
"                  ; I.<X<X<X<X<X<X<X<X<X<X<X<X<X<X<X<X<X<X<X<X<X<X<X<X<X<X<X<X<X<X<X<X<X<X<X<X<X<X<X<X<X<X<X<X<X<X<X<X<X<X<X<X<X<X<X<X<X<X<X/                                                                                               W <X<X<X<X<X<X<X<X<XM.                                                                ",
"                & D.<X<X<X<X<X<X<X<X<X<X<X<X<X<X<X<X<X<X<X<X<X<X<X<X<X<X<X<X<X<X<X<X<X<X<X<X<X<X<X<X<X<X<X<X<X<X<X<X<X<X<X<X<X<X<X<X<X<X<X<XQ                                                                                               . T.<X<X<X<X<X<X<X>Xs                                                                 ",
"              # V.<X<X<X<X<X<X<X<X<X<X<X<X<X<X<X<X<X<X<X<X<X<X<X<X<X<X<X<X<X<X<X<X<X<X<X<X<X<X<X<X<X<X<X<X<X<X<X<X<X<X<X<X<X<X<X<X<X<X<X<X<XR                                                                                                 K <X<X<X<X<X<X<Xk.                                                                  ",
"            . z.<X<X<X<X<X<X<X<X<X<X<X<X<X<X<X<X<X<X<X<X<X<X<X<X<X<X<X<X<X<X<X<X<X<X<X<X<X<X<X<X<X<X<X<X<X<X<X<X<X<X<X<X<X<X<X<X<X<X<X<X<X<X!                                                                                                 . U.<X<X<X<X<X>Xd                                                                   ",
"            *.<X<X<X<X<X<X<X<X<X<X<X<X<X<X<X<X<X<X<X<X<X<X<X<X<X<X<X<X<X<X<X<X<X<X<X<X<X<X<X<X<X<X<X<X<X<X<X<X<X<X<X<X<X<X<X<X<X<X<X<X<X<X<X]                                                                                                   Q <X<X<X<X<Xb.                                                                    ",
"          Z :X<X<X<X<X<X<X<X<X<X<X<X<X<X<X<X<X<X<X<X<X<X<X<X<X<X<X<X<X<X<X<X<X<X<X<X<X<X<X<X<X<X<X<X<X<X<X<X<X<X<X<X<X<X<X<X<X<X<X<X<X<X<X<Xo.                                                                                                  @  X<X<X<X<XG                                                                     ",
"        q .X<X<X<X<X<X<X<X<X<X<X<X<X<X<X<X<X<X<X<X<X<X<X<X<X<X<X<X<X<X<X<X<X<X<X<X<X<X<X<X<X<X<X<X<X<X<X<X<X<X<X<X<X<X<X<X<X<X<X<X<X<X<X<X<X*.                                                                                                    2.<X<X<X].o                                                                     ",
"      X J.<X<X<X<X<X<X<X<X<X<X<X<X<X<X<X<X<X<X&X~.Z.f.5.+.` Y Z k j j d i j j b Z T ] %.7.h.G.`.=X<X<X<X<X<X<X<X<X<X<X<X<X<X<X<X<X<X<X<X<X<X7.                                                                                                    i <X<X<X>.                                                                      ",
"      | <X<X<X<X<X<X<X<X<X<X<X<X<X%XP.y.{ Z q X                                                 O t J #.d.!.:X<X<X<X<X<X<X<X<X<X<X<X<X<X<X<Xg.                                                                                                      !.<X<Xg                                                                       ",
"    9 #X<X<X<X<X<X<X<X<X<X{.j.} f O                                                                         = m #.N.$X<X<X<X<X<X<X<X<X<X<X<XZ.                                                                                                      ,.<X`.                                                                        ",
"    b.<X<X<X<X<X<X-XA.@.a                                                                                           @ n <.Q.<X<X<X<X<X<X<X<X!.                                                                                                      k <X0.                                                                        ",
"  Z <X<X<X<X:XZ._ ,                                                                                                         e $.Q.<X<X<X<X<X$X.                                                                                                     o #XP                                                                         ",
"  F.<X<X].*.7                                                                                                                     h e.#X<X<X<X9                                                                                                       V.5                                                                         ",
"V <XG.L o                                                                                                                             ;  .`.<XA                                                                                                       !                                                                           ",
":.V                                                                                                                                       + ( H                                                                                                       w                                                                           "
};
